<?xml version="1.0" standalone="no"?>
<!DOCTYPE svg PUBLIC "-//W3C//DTD SVG 20010904//EN"
 "http://www.w3.org/TR/2001/REC-SVG-20010904/DTD/svg10.dtd">
<svg version="1.0" xmlns="http://www.w3.org/2000/svg"
 width="512.000000pt" height="512.000000pt" viewBox="0 0 512.000000 512.000000"
 preserveAspectRatio="xMidYMid meet">

<g transform="translate(0.000000,512.000000) scale(0.100000,-0.100000)"
fill="#000000" stroke="none">
<path d="M2365 2932 c-28 -10 -65 -28 -84 -41 l-33 -24 4 -94 c3 -92 4 -95 36
-124 38 -34 62 -37 62 -9 0 53 57 110 109 110 35 0 485 -102 513 -116 45 -23
62 -58 55 -112 -11 -92 -148 -697 -163 -720 -9 -13 -31 -30 -50 -38 -33 -14
-49 -12 -287 41 -138 30 -262 62 -275 71 -13 9 -30 31 -38 50 -13 31 -11 49
36 261 27 125 46 230 42 234 -4 4 -23 12 -44 18 -47 15 -121 81 -154 137 -15
26 -33 44 -44 44 -10 0 -175 14 -366 31 -192 17 -367 28 -389 24 -22 -3 -61
-18 -87 -33 -25 -15 -191 -159 -367 -320 l-321 -293 67 -74 67 -75 41 39 c22
21 169 156 328 299 250 229 291 262 319 262 44 0 742 -61 747 -66 2 -2 0 -23
-3 -47 l-7 -44 -311 -198 c-171 -110 -325 -214 -343 -232 -18 -18 -39 -50 -48
-70 -13 -29 -142 -597 -212 -929 l-6 -32 92 -21 c59 -14 95 -18 99 -11 3 5 50
211 104 457 79 363 102 452 119 470 12 12 114 80 227 152 l205 131 5 -82 c4
-58 12 -97 28 -130 26 -53 97 -123 147 -143 64 -27 527 -125 590 -125 81 0
144 23 200 72 44 39 95 121 95 153 0 8 4 15 9 15 9 0 274 -409 286 -440 3 -9
-40 -222 -95 -474 -55 -252 -99 -461 -96 -463 9 -9 179 -44 184 -38 4 3 50
205 104 448 98 447 112 539 88 603 -6 15 -101 168 -211 340 l-200 312 10 42
c5 23 11 43 13 46 6 5 697 -243 723 -260 13 -9 80 -156 189 -415 93 -220 174
-401 180 -401 30 1 171 70 168 82 -5 21 -313 749 -338 799 -26 51 -81 105
-131 125 -18 8 -189 70 -380 139 -192 69 -353 127 -359 129 -9 3 -8 22 3 68
20 84 13 170 -20 233 -43 85 -130 152 -217 169 -19 4 -137 30 -261 57 -248 54
-280 57 -354 31z"/>
</g>
</svg>
