<?xml version="1.0" encoding="utf-8"?>
<!-- Generator: Adobe Illustrator 27.5.0, SVG Export Plug-In . SVG Version: 6.00 Build 0)  -->
<svg version="1.1" id="Layer_1" xmlns="http://www.w3.org/2000/svg" xmlns:xlink="http://www.w3.org/1999/xlink" x="0px" y="0px"
	 viewBox="0 0 512 512" style="enable-background:new 0 0 512 512;" xml:space="preserve">
<style type="text/css">
	.st0{fill:#FFFFFF;}
	.st1{fill:#141414;}
	.st2{fill:#FFFFFF;stroke:url(#SVGID_1_);stroke-width:3;stroke-miterlimit:10;}
	.st3{clip-path:url(#XMLID_00000093871371672322536590000003387347944631630488_);}
	.st4{fill:none;stroke:#141414;stroke-width:3;stroke-miterlimit:10;}
	.st5{clip-path:url(#XMLID_00000170981330343796580640000013357498310003420340_);}
	.st6{fill:none;stroke:#FFFFFF;stroke-width:3;stroke-miterlimit:10;}
	.st7{clip-path:url(#XMLID_00000123416008723024315620000004996891528385020567_);}
	.st8{clip-path:url(#XMLID_00000144331423052577722220000012123529276394742187_);}
	.st9{clip-path:url(#XMLID_00000022557215865897492280000012665826592062047400_);}
	.st10{fill:#FF770D;}
	.st11{fill:#FCCE00;}
	.st12{fill:#FFA808;}
	.st13{clip-path:url(#SVGID_00000091006852816516030870000005609118634453885630_);fill:#141414;}
	.st14{clip-path:url(#SVGID_00000029743506974625453890000008270333210574627981_);fill:#FCCE00;}
	.st15{clip-path:url(#SVGID_00000122694583299449018140000005249438385256009110_);fill:#FCCE00;}
	.st16{clip-path:url(#SVGID_00000111189571200211903850000013281902706228650897_);fill:#FCCE00;}
	.st17{clip-path:url(#SVGID_00000116226646576595261850000015442404656109630080_);fill:#FCCE00;}
	.st18{clip-path:url(#SVGID_00000167393044760069301520000005560908252804310438_);fill:#FCCE00;}
	.st19{clip-path:url(#SVGID_00000066497244610893564830000005235054954899815852_);fill:#FCCE00;}
	.st20{clip-path:url(#SVGID_00000047041405836780793040000012934926985332243862_);fill:#FCCE00;}
	.st21{clip-path:url(#SVGID_00000039830310221346806890000009757502485589652629_);fill:#FCCE00;}
	.st22{clip-path:url(#SVGID_00000031924422520326965450000009237787475560500101_);fill:#FFFFFF;}
	.st23{clip-path:url(#SVGID_00000080206818586330501730000006875472511677823380_);fill:#FCCE00;}
	.st24{clip-path:url(#SVGID_00000088855625238515045740000009558328190257921943_);fill:#FCCE00;}
	.st25{clip-path:url(#SVGID_00000004504315139383817450000005193839346235383468_);fill:#FCCE00;}
	.st26{clip-path:url(#SVGID_00000144315044010540573620000003916801840634780050_);fill:#FCCE00;}
	.st27{clip-path:url(#SVGID_00000119089584605037406930000000161512026065175459_);fill:#FCCE00;}
	.st28{clip-path:url(#SVGID_00000077296641413607071170000017787835443845911954_);fill:#FCCE00;}
	.st29{clip-path:url(#SVGID_00000182516861830580932150000017668546133174761663_);fill:#FCCE00;}
	.st30{clip-path:url(#SVGID_00000030444335242363386310000009236287887481997713_);fill:#FCCE00;}
	.st31{fill:url(#SVGID_00000134235955217891627860000013427789707862306985_);}
	.st32{fill:url(#SVGID_00000057119483442003240880000009933501912454716077_);}
	.st33{fill:url(#SVGID_00000032613063575797220810000005507394982623035551_);}
	.st34{fill:url(#SVGID_00000132088793898707551650000008864339076956154536_);}
	.st35{fill:url(#SVGID_00000152984495449257927230000012609998229816969913_);}
	.st36{fill:url(#SVGID_00000090260301754254629680000013242078353916279954_);}
	.st37{stroke:#D1D3D4;stroke-miterlimit:10;}
	.st38{clip-path:url(#SVGID_00000043421862298173505260000005924169824488197035_);fill:#141414;}
	.st39{clip-path:url(#SVGID_00000074410588885262950120000010568116533449546665_);fill:#FCCE00;}
	.st40{clip-path:url(#SVGID_00000152976784375630280840000013440859983606076032_);fill:#FFA808;}
	.st41{clip-path:url(#SVGID_00000178176863816390646840000002099421407457552056_);fill:#FF770D;}
	.st42{clip-path:url(#SVGID_00000145754552041607385590000014573205028475349393_);fill:#141414;}
	.st43{fill:url(#SVGID_00000082367190374080572050000007361656835558284986_);}
	.st44{fill:url(#SVGID_00000047050455697879663240000000217112892802474167_);}
	.st45{fill:url(#SVGID_00000152241952760549786640000010946179996297484178_);}
	.st46{fill:url(#SVGID_00000038387155417849304090000015157148577404153276_);}
	.st47{fill:#FFFFFF;stroke:#D1D3D4;stroke-miterlimit:10;}
	.st48{fill:#231F20;}
	.st49{clip-path:url(#XMLID_00000073687496118781042730000015305101030318446724_);}
	.st50{clip-path:url(#XMLID_00000150794915586629440840000014028558091260306339_);}
	.st51{fill:url(#SVGID_00000153676476114125007880000015619665529966615482_);}
	.st52{fill:url(#SVGID_00000163773315789536771110000012300354367585160102_);}
	
		.st53{fill:url(#SVGID_00000085936754890053652140000003431947273149234816_);stroke:url(#SVGID_00000054234406781237137710000016999074136799745929_);stroke-miterlimit:10;}
	
		.st54{fill:url(#SVGID_00000182525492180334421160000001447068684506228927_);stroke:url(#SVGID_00000155846030080710728640000017354059497766850746_);stroke-miterlimit:10;}
	.st55{clip-path:url(#SVGID_00000008119703529607896040000005100337114776332217_);fill:#FCCE00;}
	.st56{clip-path:url(#SVGID_00000060732818168853613090000003941049798035889288_);fill:#FCCE00;}
	.st57{fill:url(#SVGID_00000087400899534829527310000001976156351953128844_);}
	
		.st58{clip-path:url(#SVGID_00000091709412983949899320000011676753745758799545_);fill:url(#SVGID_00000082326540397658113240000006776885600039656116_);}
	.st59{fill:url(#SVGID_00000165931065805853389830000015740492181861772974_);}
	.st60{fill:url(#SVGID_00000144317095836071996240000015717374798276265879_);}
	
		.st61{clip-path:url(#SVGID_00000000207166265354076950000003605170706894210199_);fill:url(#SVGID_00000183250069440252719660000006539433372918114690_);}
	.st62{clip-path:url(#SVGID_00000114795559618641163130000014406519765101451933_);fill:#141414;}
	.st63{fill:#FFFFFF;stroke:url(#SVGID_00000177470705610648022360000001122141604635637152_);stroke-width:3;stroke-miterlimit:10;}
	.st64{fill:#FFFFFF;stroke:url(#SVGID_00000101091567286687007050000012737307901190389692_);stroke-width:3;stroke-miterlimit:10;}
	.st65{opacity:0.15;clip-path:url(#XMLID_00000089548008033151136850000009651414092096398256_);}
	.st66{opacity:0.15;clip-path:url(#XMLID_00000026881824514029779320000000474850819140753546_);}
	.st67{clip-path:url(#SVGID_00000008859024563370402910000011950665237400836269_);fill:#FCCE00;}
	.st68{opacity:0.15;clip-path:url(#XMLID_00000088854966527009172940000016331026850763737474_);}
	.st69{clip-path:url(#SVGID_00000036223770516734288890000016453277324346098587_);fill:#FCCE00;}
	.st70{fill:url(#SVGID_00000057113438153550049610000001752111353067508381_);}
	.st71{fill:url(#SVGID_00000015354876214235092940000009900074740714139322_);}
	.st72{fill:url(#SVGID_00000088854979812958575820000015525986214553210780_);}
	.st73{fill:url(#SVGID_00000047772856005801970050000017178044586366782114_);}
	.st74{fill:url(#SVGID_00000047779228313824922100000000524404229416594835_);}
	.st75{fill:#FFFFFF;stroke:url(#SVGID_00000098934209718597795160000010853470636344108222_);stroke-width:3;stroke-miterlimit:10;}
	.st76{fill:#141414;stroke:#D1D3D4;stroke-miterlimit:10;}
	.st77{clip-path:url(#SVGID_00000053514777899894207920000008004280789184077726_);fill:#FFFFFF;}
	.st78{clip-path:url(#SVGID_00000016769171534995310430000006847900927935629975_);fill:#FFFFFF;}
	.st79{clip-path:url(#SVGID_00000178171340195033241830000014930124788899405210_);fill:#FCCE00;}
	.st80{clip-path:url(#XMLID_00000132080029151527183680000011663341564460590265_);}
	.st81{fill:url(#SVGID_00000083078069452202030000000015341318370413695130_);}
	.st82{fill:url(#SVGID_00000163782880267499845300000010490561371810011317_);}
	.st83{fill:url(#SVGID_00000127748781141750809030000011314859666884638647_);}
	.st84{fill:url(#SVGID_00000117676458209897069300000014796570119709680257_);}
	.st85{clip-path:url(#SVGID_00000158715551610947525370000012211477111532590267_);fill:#FCCE00;}
	.st86{clip-path:url(#SVGID_00000168810426401530213380000002388725048094654632_);fill:#FCCE00;}
</style>
<g>
	<g>
		<path class="st11" d="M443.78,126.84l-49.34,69.76c-1.41,1.99-3.6,3.31-6.02,3.63l-74.27,9.64v-9.85l50.08-50.09
			c5.36-5.36,8.31-12.48,8.31-20.05V37.88h-19.6v92.01c0,2.34-0.91,4.54-2.56,6.19l-36.22,36.22v-1.97
			c0-16.97-13.8-30.77-30.77-30.77l-47.06,0c-16.97,0-30.77,13.8-30.77,30.77v1.97l-36.22-36.22c-1.65-1.65-2.56-3.85-2.56-6.19
			V37.88h-19.6v92.01c0,7.58,2.95,14.7,8.31,20.05l50.08,50.08v9.85l-74.27-9.64c-2.42-0.31-4.61-1.64-6.02-3.63l-49.34-69.76
			l-16.01,11.32l49.34,69.76c4.56,6.45,11.67,10.73,19.5,11.75l76.79,9.97v9.85c0,16.97,13.8,30.77,30.77,30.77h47.06
			c16.97,0,30.77-13.8,30.77-30.77v-9.85l76.79-9.97c7.83-1.02,14.94-5.3,19.5-11.75l49.34-69.76L443.78,126.84z M294.55,239.49
			c0,6.17-5,11.16-11.16,11.16h-47.06c-6.17,0-11.16-5-11.16-11.16v-69.16c0-6.17,5-11.16,11.16-11.16l47.06,0
			c6.17,0,11.16,5,11.16,11.16V239.49z"/>
	</g>
	<path class="st1" d="M409.55,316.17c-3.07-7.28-9.1-12.99-16.53-15.66l-72.86-26.21l2.11-9.62c3.64-16.57-6.88-33.01-23.45-36.65
		l-45.97-10.1c-16.57-3.64-33.01,6.88-36.65,23.45l-2.11,9.62l-77.14-6.74c-7.87-0.69-15.73,1.97-21.57,7.29l-63.16,57.55
		l13.2,14.49l63.16-57.55c1.8-1.64,4.23-2.46,6.66-2.25l74.6,6.52l-2.11,9.62l-59.67,38.17c-6.38,4.08-10.79,10.41-12.42,17.8
		l-19.74,89.86l19.15,4.21l19.74-89.86c0.5-2.28,1.86-4.24,3.83-5.5l43.15-27.6l-0.42,1.92c-3.64,16.57,6.88,33.01,23.45,36.65
		l45.97,10.1c16.57,3.64,33.01-6.88,36.65-23.45l0.42-1.92l27.6,43.15c1.26,1.97,1.68,4.31,1.18,6.6l-19.74,89.86l19.15,4.21
		l19.74-89.86c1.63-7.4,0.27-14.99-3.81-21.37l-38.17-59.66l2.11-9.62l70.47,25.35c2.29,0.83,4.15,2.59,5.1,4.83l33.22,78.72
		l18.06-7.62L409.55,316.17z M274.98,336.52l-45.97-10.1c-6.02-1.32-9.83-7.28-8.51-13.3l14.84-67.55c1.32-6.02,7.28-9.83,13.3-8.51
		l45.97,10.1c6.02,1.32,9.83,7.28,8.51,13.3l-14.84,67.55C286.96,334.04,281,337.85,274.98,336.52z"/>
	<g>
		<defs>
			<path id="SVGID_00000115510594460632332440000002563471659678952065_" d="M57.91,35.88v236.38h403.87V35.88H57.91z
				 M315.15,239.49c0,10.13-4.87,19.64-13.05,25.63l1.02-4.66c1.32-6.02-2.49-11.98-8.51-13.3l-3.73-0.82
				c1.7-1.85,2.66-4.28,2.66-6.85v-12.63l5.28,1.16c6.56,1.44,12.17,4.9,16.33,9.57V239.49z"/>
		</defs>
		<clipPath id="SVGID_00000045607284570756913780000011817178583704664977_">
			<use xlink:href="#SVGID_00000115510594460632332440000002563471659678952065_"  style="overflow:visible;"/>
		</clipPath>
		<path style="clip-path:url(#SVGID_00000045607284570756913780000011817178583704664977_);fill:#FCCE00;" d="M443.78,126.84
			l-49.34,69.76c-1.41,1.99-3.6,3.31-6.02,3.63l-74.27,9.64v-9.85l50.08-50.09c5.36-5.36,8.31-12.48,8.31-20.05V37.88h-19.6v92.01
			c0,2.34-0.91,4.54-2.56,6.19l-36.22,36.22v-1.97c0-16.97-13.8-30.77-30.77-30.77l-47.06,0c-16.97,0-30.77,13.8-30.77,30.77v1.97
			l-36.22-36.22c-1.65-1.65-2.56-3.85-2.56-6.19V37.88h-19.6v92.01c0,7.58,2.95,14.7,8.31,20.05l50.08,50.08v9.85l-74.27-9.64
			c-2.42-0.31-4.61-1.64-6.02-3.63l-49.34-69.76l-16.01,11.32l49.34,69.76c4.56,6.45,11.67,10.73,19.5,11.75l76.79,9.97v9.85
			c0,16.97,13.8,30.77,30.77,30.77h47.06c16.97,0,30.77-13.8,30.77-30.77v-9.85l76.79-9.97c7.83-1.02,14.94-5.3,19.5-11.75
			l49.34-69.76L443.78,126.84z M294.55,239.49c0,6.17-5,11.16-11.16,11.16h-47.06c-6.17,0-11.16-5-11.16-11.16v-69.16
			c0-6.17,5-11.16,11.16-11.16l47.06,0c6.17,0,11.16,5,11.16,11.16V239.49z"/>
	</g>
</g>
</svg>
